<?xml version="1.0"?>
<svg xmlns="http://www.w3.org/2000/svg" viewBox="0 0 100 100"><path d="M77.5 28.8L61.2 12.5C60 11.3 59 10.8 58 10.8H22.6c-.9 0-1.7.8-1.7 1.7v75.1c0 .9.8 1.7 1.7 1.7h54.8c.9 0 1.7-.8 1.7-1.7V32c0-1-.5-2.1-1.6-3.2z" fill="#e0e0e0"/><path d="M62.4 28.8h15.1L61.2 12.5v15.1c0 .6.6 1.2 1.2 1.2z" fill="#666766"/><path d="M62.3 8.3c-.5-.5-1.2-.8-1.9-.8H22.6c-2.7 0-5 2.2-5 5v75.1c0 2.7 2.2 5 5 5h54.8c2.7 0 5-2.2 5-5V31.1c0-1.8-.7-3.4-1.9-4.7L62.3 8.3zm-1.1 4.2l16.2 16.2h-15c-.7 0-1.2-.5-1.2-1.2m17.9 60c0 .9-.8 1.7-1.7 1.7H22.6c-.9 0-1.7-.8-1.7-1.7v-75c0-.9.8-1.7 1.7-1.7H58v16.8c0 2.5 2 4.5 4.5 4.5h16.7v55.4z" fill="#010101"/><path d="M37.619 76.977c0 1.105-.038 3.847-3.048 3.847-3.009 0-3.048-2.742-3.048-3.847V65.243c0-1.143.039-3.886 3.048-3.886 3.01 0 3.048 2.743 3.048 3.886v.457h4v-.457c0-3.581-1.143-7.733-7.048-7.733-4.724 0-7.01 3.2-7.01 7.733v11.734c0 3.543 1.372 7.733 7.01 7.733 4.724 0 7.048-3.2 7.048-7.733v-7.772h-7.048v3.886h3.048zm6.705 7.238h6.438c5.371.114 7.619-3.543 7.619-7.353V65.396c0-3.924-2.248-7.391-7.619-7.391h-6.438zm3.885-22.362h2.629c3.2 0 3.619 2.552 3.619 3.657v11.238c0 1.067-.419 3.619-3.619 3.619h-2.629zm23.963 8.533c1.409-1.028 2.095-2.819 2.095-5.371 0-3.543-1.905-7.01-7.238-7.01h-5.981v26.21h6.438c5.372 0 7.619-3.505 7.619-7.353 0-3.352-1.105-5.295-2.933-6.476zm-5.257-8.648c3.466 0 3.504 2.591 3.504 3.543 0 .953-.038 3.848-3.504 3.848h-2.134v-7.391zm4.19 15.048c0 1.105-.419 3.696-3.619 3.696h-2.705v-7.696h2.476c3.772 0 3.848 2.934 3.848 4z"/><metadata xmlns:d="https://loading.io/stock/"><d:name>gdb</d:name><d:tags>type,postfix,suffix,data,gdb,file format</d:tags><d:license>by</d:license><d:slug>4awutw</d:slug></metadata></svg>