<svg xmlns="http://www.w3.org/2000/svg" shape-rendering="geometricPrecision" text-rendering="geometricPrecision" image-rendering="optimizeQuality" fill-rule="evenodd" clip-rule="evenodd" viewBox="0 0 495 511.72"><path fill="#EB0B19" fill-rule="nonzero" d="M284.59 440.61c-19.1 5.13-38.78 7.76-58.55 7.8C111.85 448.49 0 357.33 0 224.79 0 91.09 111.85 0 226.04 0c116.07 0 226.67 90.54 226.67 224.79.58 68.48-31.08 133.24-85.47 174.84 15.61 24.51 33.25 40.83 56.75 40.83 25.6 0 35.9-19.83 37.7-35.36H495v12.02c-2.45 30.91-21.32 94.6-101.61 94.6-56.51 0-86.41-32.79-108.8-71.18v.07zm-21.24-41.6c-17.72-34.89-38.55-70.25-79.14-70.25-8.03-.1-16 1.45-23.42 4.53l-13.82-27.63c16.79-14.44 43.95-25.76 78.06-25.76 54.25 0 82.11 26.15 104.28 59.55 13.11-28.49 19.35-66.97 19.35-114.74 0-119.1-37.22-179.52-124.26-179.52-85.85 0-122.78 61.2-122.78 179.52 0 118.33 37.08 178.98 122.78 178.98 12.61.17 25.17-1.46 37.31-4.84l1.64.16z"/></svg>